# xmcd CD database file
# Generated: Wed Nov 21 14:03:34 2001 by KSCD
# 
# Track frame offsets:
#       150
#       21668
#       38089
#       54602
#       77069
#       97986
#       117376
#       133967
#       153473
#       167364
#       188199
#       204847
#       223626
#
# Disc length: 3228 seconds
#
# Revision: 3
# Processed by: cddbd v1.4PL0 Copyright (c) Steve Scherf et al.
# Submitted via: Kscd 1.3.0
#
DISCID=b10c9a0d
DTITLE=Calvin Russel - Rebel Radio
DYEAR=1900
DGENRE=
TTITLE0=Shadow Of Doubt
TTITLE1=It Is What It Is
TTITLE2=Barroom Girls
TTITLE3=No Expectations
TTITLE4=Country Boy
TTITLE5=Freight Train Blues
TTITLE6=Pass You By
TTITLE7=Still Lookin' For You
TTITLE8=Wild Roses
TTITLE9=I Never Cared For You
TTITLE10=Ain't Leavin' Your Love
TTITLE11=I'll Be Here In The Morning
TTITLE12=Nothin' Is
EXTD=Musicians:\nRiley Osbourn - keyboard\nRichard Bowden - violin\nGabe Rh
EXTD=odes - guitar, pump organ\nT. Stephen Bruton - guitar, background voca
EXTD=ls\nLloyd Maines - dobro\nJohn Blondell - bass\nFreddie Krc - drums\nK
EXTD=immie Rhodes - background vocals\n\nProduced by Joe Gracey\nExecutive 
EXTD=Producer: Freddy Fletcher and Pedernales Records\nRecorded at Pedernales
EXTD=Studio, Austin, TX\nEngineer: Bob Mac Leod
EXTT0=(Gary Nicholson)
EXTT1=(Stephan Bruton, John Fleming)
EXTT2=(Gillian Welch, David Rawlings)
EXTT3=(Mick Jagger, Keith Richards)
EXTT4=(Calvin Russel)
EXTT5=(Calvin Russel)
EXTT6=(Calvin Russel)
EXTT7=(Gillian Welch, David Rawlings)\t
EXTT8=(Townes Van Zandt)
EXTT9=(Kimmie Rhodes)
EXTT10=(Willie Nelson)
EXTT11=(Townes Van Zandt)
EXTT12=(Calvin Russel)
PLAYORDER=
